<svg xmlns="http://www.w3.org/2000/svg" viewBox="0 0 190.66 84.7"><defs><style>.cls-1{fill:#453a96;}</style></defs><g id="Capa_2" data-name="Capa 2"><g id="Capa_1-2" data-name="Capa 1"><path class="cls-1" d="M27.25,48c0-1,0-2.17,0-3.77V44H21.91v.24c0,1.6,0,2.78,0,3.72s0,1.53,0,2.23,0,1.26,0,2,0,1.95,0,3.39c0,1-.69,2.49-3.69,4.22-1.78-1.26-3.56-3.24-3.54-4.47,0-2.26.06-6,0-10.84V44H9.38v.81c0,1.5,0,6.08,0,10.79,0,5.11,8.23,10,8.31,10l.48.28.5-.29c1.41-.79,8.45-5,8.58-9.68,0-1.45,0-2.55,0-3.44s0-1.41,0-2S27.26,49,27.25,48Z"/><path class="cls-1" d="M27.57,36.38c0-.13,0-.27,0-1.15A13.57,13.57,0,0,0,14,21.43h-.22A13.78,13.78,0,0,0,.1,34.7c-.06,2.18,0,5.08,0,8.16,0,2.78,0,5.66,0,8.48v.25H5.25V50.25c0-3.43,0-4.22,0-4.75a17.45,17.45,0,0,1,0-2.34c0-.95,0-2,0-3.33,0-1.56-.06-3.34,0-5.36A7.7,7.7,0,0,1,8,29a8.52,8.52,0,0,1,14.3,6.45c0,.36,0,.57,0,.7s0,.25,0,.52v1.88h5.24v-1C27.58,36.63,27.58,36.51,27.57,36.38Z"/><path class="cls-1" d="M26.63,67.32v-2l-5.32,4v.13s0,1.4,0,1.91a8.15,8.15,0,0,1-2.62,5.8,6.71,6.71,0,0,1-5.43,2.25,8.44,8.44,0,0,1-7.95-8.7c0-.64,0-1.28,0-1.92,0-.91,0-1.85,0-2.75,0-.43,0-.86,0-1.28s0-.79,0-1.18V58H0v1c0,2.61,0,4.94,0,7.19,0,1.67,0,3.25,0,4.79A13.53,13.53,0,0,0,13.5,84.7h.21c7.15,0,12.71-5.7,12.92-13.27,0-1.13,0-1.67,0-2.19S26.6,68.27,26.63,67.32Z"/><path class="cls-1" d="M13.79,19.9A10,10,0,1,0,3.85,10,9.95,9.95,0,0,0,13.79,19.9ZM8.64,10a5.15,5.15,0,1,1,5.15,5.17A5.16,5.16,0,0,1,8.64,10Z"/><path d="M41.23,79.54a3.37,3.37,0,0,1-1.67-.42,3.06,3.06,0,0,1-1.2-1.22,4.08,4.08,0,0,1-.44-2V73.78a3.46,3.46,0,0,1,1-2.66,3.63,3.63,0,0,1,2.64-.94,3.57,3.57,0,0,1,2.57.88,3.19,3.19,0,0,1,.9,2.39v0H43.34v-.1a1.73,1.73,0,0,0-.2-.86,1.43,1.43,0,0,0-.6-.62,2,2,0,0,0-1-.22,1.82,1.82,0,0,0-1.41.55,2.14,2.14,0,0,0-.51,1.51V76a2.21,2.21,0,0,0,.51,1.51,1.83,1.83,0,0,0,1.44.57,1.71,1.71,0,0,0,1.35-.49,1.84,1.84,0,0,0,.42-1.23V76.2H41.21V74.76H45v4.6H43.44V78.5h-.23a1.73,1.73,0,0,1-.29.46,1.5,1.5,0,0,1-.59.41A3,3,0,0,1,41.23,79.54Z"/><path d="M49.59,79.54a3.37,3.37,0,0,1-1.68-.41A2.88,2.88,0,0,1,46.78,78a3.55,3.55,0,0,1-.41-1.74v-.16a3.72,3.72,0,0,1,.4-1.74,2.86,2.86,0,0,1,1.12-1.14,3.36,3.36,0,0,1,1.67-.41,3.07,3.07,0,0,1,1.63.42,2.81,2.81,0,0,1,1.08,1.16,3.6,3.6,0,0,1,.39,1.71v.56H48a1.44,1.44,0,0,0,.49,1.06,1.61,1.61,0,0,0,1.13.41,1.42,1.42,0,0,0,1-.29,2.18,2.18,0,0,0,.49-.66l1.32.7a4,4,0,0,1-.52.72,2.62,2.62,0,0,1-.9.67A3.21,3.21,0,0,1,49.59,79.54ZM48,75.44h3a1.27,1.27,0,0,0-.44-.89,1.77,1.77,0,0,0-2.06,0A1.45,1.45,0,0,0,48,75.44Z"/><path d="M56.74,79.54a3.56,3.56,0,0,1-2-.54,2.23,2.23,0,0,1-1-1.54l1.49-.39a1.61,1.61,0,0,0,.3.71,1.14,1.14,0,0,0,.53.36,1.9,1.9,0,0,0,.68.11,1.37,1.37,0,0,0,.84-.2.58.58,0,0,0,.27-.49.52.52,0,0,0-.26-.46,2.62,2.62,0,0,0-.82-.26l-.36-.06a6.73,6.73,0,0,1-1.22-.36,2.33,2.33,0,0,1-.89-.62,1.57,1.57,0,0,1-.33-1,1.71,1.71,0,0,1,.69-1.46,3,3,0,0,1,1.83-.51,3.08,3.08,0,0,1,1.77.48,2.22,2.22,0,0,1,.93,1.25L57.68,75a1.08,1.08,0,0,0-.41-.7,1.48,1.48,0,0,0-.78-.2,1.27,1.27,0,0,0-.71.16.5.5,0,0,0-.24.44.49.49,0,0,0,.25.46,2.39,2.39,0,0,0,.7.23l.36.06a7.45,7.45,0,0,1,1.3.34,2.21,2.21,0,0,1,.93.6,1.6,1.6,0,0,1,.34,1.06A1.81,1.81,0,0,1,58.69,79,3.12,3.12,0,0,1,56.74,79.54Z"/><path d="M63.14,79.36a1.38,1.38,0,0,1-1-.39,1.42,1.42,0,0,1-.39-1v-3.6H60.14V73h1.59V71h1.62v2H65.1v1.34H63.35v3.32c0,.25.12.38.36.38h1.23v1.34Z"/><path d="M69.36,79.54a3.71,3.71,0,0,1-1.71-.39A2.89,2.89,0,0,1,66.46,78,3.42,3.42,0,0,1,66,76.27v-.2a3.38,3.38,0,0,1,.44-1.76,2.92,2.92,0,0,1,1.19-1.12,3.71,3.71,0,0,1,1.71-.39,3.65,3.65,0,0,1,1.71.39,2.88,2.88,0,0,1,1.2,1.12,3.38,3.38,0,0,1,.44,1.76v.2A3.42,3.42,0,0,1,72.27,78a2.86,2.86,0,0,1-1.2,1.11A3.65,3.65,0,0,1,69.36,79.54Zm0-1.44a1.7,1.7,0,0,0,1.24-.48,1.87,1.87,0,0,0,.49-1.38v-.13a1.83,1.83,0,0,0-.49-1.38,1.64,1.64,0,0,0-1.24-.49,1.67,1.67,0,0,0-1.23.49,1.83,1.83,0,0,0-.49,1.38v.13a1.83,1.83,0,0,0,.49,1.38A1.7,1.7,0,0,0,69.36,78.1Z"/><path d="M74.2,79.36V73h1.59v.72H76a1,1,0,0,1,.47-.56,1.55,1.55,0,0,1,.76-.18H78V74.4h-.79a1.56,1.56,0,0,0-1,.33,1.22,1.22,0,0,0-.4,1v3.63Z"/><path d="M85.12,79.54a2.82,2.82,0,0,1-1.42-.38,2.71,2.71,0,0,1-1.06-1.11,3.63,3.63,0,0,1-.4-1.78v-.2a3.66,3.66,0,0,1,.4-1.78,2.88,2.88,0,0,1,1-1.11,2.83,2.83,0,0,1,1.43-.38,3,3,0,0,1,1,.14,2,2,0,0,1,.64.34,1.67,1.67,0,0,1,.37.44h.23V70.36H89v9h-1.6v-.77h-.23a2,2,0,0,1-.67.65A2.45,2.45,0,0,1,85.12,79.54Zm.49-1.42a1.72,1.72,0,0,0,1.24-.48,1.83,1.83,0,0,0,.5-1.4v-.13a1.87,1.87,0,0,0-.49-1.41,1.87,1.87,0,0,0-2.5,0,1.88,1.88,0,0,0-.5,1.41v.13a1.87,1.87,0,0,0,.5,1.4A1.73,1.73,0,0,0,85.61,78.12Z"/><path d="M93.65,79.54A3.43,3.43,0,0,1,92,79.13,2.88,2.88,0,0,1,90.84,78a3.55,3.55,0,0,1-.4-1.74v-.16a3.6,3.6,0,0,1,.4-1.74A2.77,2.77,0,0,1,92,73.21a3.37,3.37,0,0,1,1.68-.41,3.12,3.12,0,0,1,1.63.42,3,3,0,0,1,1.08,1.16,3.71,3.71,0,0,1,.38,1.71v.56H92.08a1.44,1.44,0,0,0,.49,1.06,1.62,1.62,0,0,0,1.13.41,1.41,1.41,0,0,0,1-.29,2,2,0,0,0,.49-.66l1.33.7a4.55,4.55,0,0,1-.52.72,2.66,2.66,0,0,1-.91.67A3.21,3.21,0,0,1,93.65,79.54Zm-1.55-4.1h3a1.29,1.29,0,0,0-.45-.89,1.53,1.53,0,0,0-1-.33,1.56,1.56,0,0,0-1,.33A1.44,1.44,0,0,0,92.1,75.44Z"/><path d="M101.37,79.36v-9h3.91a3.4,3.4,0,0,1,1.48.3,2.22,2.22,0,0,1,1.32,2.11v.15a2.12,2.12,0,0,1-.38,1.31,2.24,2.24,0,0,1-1,.73v.24a1,1,0,0,1,.79.35,1.29,1.29,0,0,1,.29.87v2.94h-1.7v-2.7a.73.73,0,0,0-.16-.5.67.67,0,0,0-.54-.19h-2.36v3.39Zm1.7-4.94h2a1.36,1.36,0,0,0,1-.32,1.18,1.18,0,0,0,.34-.87V73.1a1.18,1.18,0,0,0-.34-.87,1.29,1.29,0,0,0-1-.32h-2Z"/><path d="M112.45,79.54a3.43,3.43,0,0,1-1.68-.41A2.88,2.88,0,0,1,109.64,78a3.55,3.55,0,0,1-.4-1.74v-.16a3.6,3.6,0,0,1,.4-1.74,2.77,2.77,0,0,1,1.11-1.14,3.37,3.37,0,0,1,1.68-.41,3.12,3.12,0,0,1,1.63.42,3,3,0,0,1,1.08,1.16,3.71,3.71,0,0,1,.38,1.71v.56h-4.64a1.44,1.44,0,0,0,.49,1.06,1.62,1.62,0,0,0,1.13.41,1.41,1.41,0,0,0,1-.29,2,2,0,0,0,.49-.66l1.33.7a4.55,4.55,0,0,1-.52.72,2.66,2.66,0,0,1-.91.67A3.21,3.21,0,0,1,112.45,79.54Zm-1.55-4.1h3a1.29,1.29,0,0,0-.45-.89,1.53,1.53,0,0,0-1-.33,1.56,1.56,0,0,0-1,.33A1.44,1.44,0,0,0,110.9,75.44Z"/><path d="M120,79.54a3.59,3.59,0,0,1-1.68-.39A2.89,2.89,0,0,1,117.09,78a3.43,3.43,0,0,1-.44-1.78v-.18a3.42,3.42,0,0,1,.44-1.77,2.92,2.92,0,0,1,1.19-1.12A3.59,3.59,0,0,1,120,72.8a3.42,3.42,0,0,1,1.56.33,2.69,2.69,0,0,1,1.06.88,3.1,3.1,0,0,1,.54,1.26l-1.57.34a2,2,0,0,0-.23-.7,1.34,1.34,0,0,0-.51-.49,1.69,1.69,0,0,0-.82-.18,1.77,1.77,0,0,0-.88.22,1.49,1.49,0,0,0-.61.63,2.11,2.11,0,0,0-.23,1v.13a2.13,2.13,0,0,0,.23,1,1.49,1.49,0,0,0,.61.63,1.87,1.87,0,0,0,.88.21,1.55,1.55,0,0,0,1.12-.38,1.78,1.78,0,0,0,.48-1l1.57.38a3.8,3.8,0,0,1-.58,1.24,2.87,2.87,0,0,1-1.06.88A3.56,3.56,0,0,1,120,79.54Z"/><path d="M124.49,79.36v-9h1.62v9Z"/><path d="M130.34,79.46a2.46,2.46,0,0,1-1.31-.34,2.3,2.3,0,0,1-.86-.94,3,3,0,0,1-.31-1.39V73h1.62v3.68a1.51,1.51,0,0,0,.35,1.08,1.36,1.36,0,0,0,1,.36,1.43,1.43,0,0,0,1.16-.5,2.12,2.12,0,0,0,.41-1.38V73H134v6.38h-1.6v-.84h-.23a1.61,1.61,0,0,1-.58.63A2.14,2.14,0,0,1,130.34,79.46Z"/><path d="M138.27,79.36a1.36,1.36,0,0,1-1.42-1.44v-3.6h-1.59V73h1.59V71h1.62v2h1.75v1.34h-1.75v3.32c0,.25.12.38.36.38h1.24v1.34Z"/><path d="M143.66,79.54a3,3,0,0,1-1.22-.24,2,2,0,0,1-.85-.69,1.93,1.93,0,0,1-.32-1.11,1.84,1.84,0,0,1,.32-1.1,1.9,1.9,0,0,1,.87-.67,3.44,3.44,0,0,1,1.28-.23h1.75v-.36a1,1,0,0,0-.28-.74,1.23,1.23,0,0,0-.9-.28,1.27,1.27,0,0,0-.9.27,1.31,1.31,0,0,0-.39.71l-1.49-.5a2.55,2.55,0,0,1,.5-.89,2.31,2.31,0,0,1,.91-.65,3.38,3.38,0,0,1,1.39-.26,2.93,2.93,0,0,1,2,.63,2.28,2.28,0,0,1,.74,1.83v2.38c0,.25.12.38.36.38h.51v1.34h-1.08a1.27,1.27,0,0,1-.78-.23.73.73,0,0,1-.31-.62h-.24a1.89,1.89,0,0,1-.24.4,1.46,1.46,0,0,1-.56.45A2.54,2.54,0,0,1,143.66,79.54Zm.29-1.31a1.64,1.64,0,0,0,1.11-.38,1.27,1.27,0,0,0,.43-1v-.13h-1.63a1.22,1.22,0,0,0-.71.19.65.65,0,0,0-.26.54.71.71,0,0,0,.27.57A1.2,1.2,0,0,0,144,78.23Z"/><path d="M149.11,79.36V73h1.6v.7h.23a1.4,1.4,0,0,1,.55-.56,1.93,1.93,0,0,1,1-.24,2,2,0,0,1,1.09.27,1.79,1.79,0,0,1,.63.68h.23a1.83,1.83,0,0,1,.62-.68,2,2,0,0,1,1.13-.27,2.25,2.25,0,0,1,1.07.25,1.88,1.88,0,0,1,.77.76,2.61,2.61,0,0,1,.29,1.28v4.19h-1.62V75.29a1.07,1.07,0,0,0-.27-.8,1.22,1.22,0,0,0-1.61.09,1.54,1.54,0,0,0-.3,1v3.77h-1.62V75.29a.93.93,0,0,0-1-1.06,1.1,1.1,0,0,0-.86.35,1.54,1.54,0,0,0-.3,1v3.77Z"/><path d="M160.9,72.24a1,1,0,0,1-.74-.28,1,1,0,0,1-.3-.75,1,1,0,0,1,.3-.74,1,1,0,0,1,.74-.29,1,1,0,0,1,.74.29,1,1,0,0,1,.3.74,1,1,0,0,1-.3.75A1,1,0,0,1,160.9,72.24Zm-.81,7.12V73h1.62v6.38Z"/><path d="M166.41,79.54a3.43,3.43,0,0,1-1.68-.41A2.88,2.88,0,0,1,163.6,78a3.55,3.55,0,0,1-.4-1.74v-.16a3.6,3.6,0,0,1,.4-1.74,2.77,2.77,0,0,1,1.11-1.14,3.36,3.36,0,0,1,1.67-.41,3.13,3.13,0,0,1,1.64.42,3,3,0,0,1,1.08,1.16,3.71,3.71,0,0,1,.38,1.71v.56h-4.64a1.44,1.44,0,0,0,.49,1.06,1.62,1.62,0,0,0,1.13.41,1.41,1.41,0,0,0,1-.29,2,2,0,0,0,.49-.66l1.33.7a4.09,4.09,0,0,1-.53.72,2.53,2.53,0,0,1-.9.67A3.21,3.21,0,0,1,166.41,79.54Zm-1.56-4.1h3a1.33,1.33,0,0,0-.45-.89,1.53,1.53,0,0,0-1-.33,1.54,1.54,0,0,0-1,.33A1.45,1.45,0,0,0,164.85,75.44Z"/><path d="M170.92,79.36V73h1.59v.84h.23a1.8,1.8,0,0,1,.58-.64,2.25,2.25,0,0,1,1.29-.3,2.52,2.52,0,0,1,1.3.34,2.32,2.32,0,0,1,.87.94,2.94,2.94,0,0,1,.31,1.39v3.81h-1.62V75.68a1.51,1.51,0,0,0-.35-1.08,1.37,1.37,0,0,0-1-.36,1.42,1.42,0,0,0-1.16.5,2.12,2.12,0,0,0-.41,1.38v3.24Z"/><path d="M181.1,79.36a1.36,1.36,0,0,1-1.42-1.44v-3.6h-1.59V73h1.59V71h1.62v2h1.75v1.34H181.3v3.32c0,.25.12.38.36.38h1.24v1.34Z"/><path d="M187.32,79.54a3.65,3.65,0,0,1-1.71-.39,2.86,2.86,0,0,1-1.2-1.11,3.41,3.41,0,0,1-.43-1.77v-.2a3.38,3.38,0,0,1,.43-1.76,2.88,2.88,0,0,1,1.2-1.12,3.65,3.65,0,0,1,1.71-.39,3.71,3.71,0,0,1,1.71.39,2.92,2.92,0,0,1,1.19,1.12,3.38,3.38,0,0,1,.44,1.76v.2a3.42,3.42,0,0,1-.44,1.77A2.89,2.89,0,0,1,189,79.15,3.71,3.71,0,0,1,187.32,79.54Zm0-1.44a1.68,1.68,0,0,0,1.23-.48,1.83,1.83,0,0,0,.49-1.38v-.13a1.87,1.87,0,0,0-.48-1.38,1.81,1.81,0,0,0-2.48,0,1.87,1.87,0,0,0-.48,1.38v.13a1.87,1.87,0,0,0,.48,1.38A1.7,1.7,0,0,0,187.32,78.1Z"/><path class="cls-1" d="M64.42,47.05v2.31c0,7.5-1.29,17-13.73,17-11.28,0-13.49-7.43-13.49-16.84V17.8C37.2,8,41.55,1.94,50.82,1.94c11.23,0,13.32,7.66,13.32,16.13v2.66H55.68V17.21c0-4.5-.89-7.61-4.92-7.61-3.88,0-5,2.89-5,7.69V50.16c0,5,1.05,8.59,5.15,8.59s5-3.38,5-8.56V47.05Z"/><path class="cls-1" d="M78.81,65.46l-11-62.63h9.08L80.62,29.4c1.17,8.57,2.73,18.21,3.29,25.11h.16c.54-6.58,2.18-16.28,3.29-24.89L91,2.83h9L89.15,65.46Z"/><path d="M104.77,65.46V17h9.83c2.86,7.73,10.86,32.26,11.67,35.41h.13c-.42-6.19-.47-13-.47-20.94V17h7.8V65.46h-9.46c-2.55-7.18-11.16-33.78-12-36.58h-.09c.44,5.85.49,12.91.49,21.63V65.46Z"/><path d="M149.21,43.43v7.41c0,4.17.9,8.24,5,8.24S159,55.53,159,51.59v-.3h8.2v.27c0,5.28-1.17,14.65-12.82,14.65C143,66.21,141,59,141,49.26V32.57c0-6.89,2.27-16.06,13.36-16.06,9.88,0,13,6.92,13,16v10.9Zm10-6.67V31.37c0-4.48-.9-7.72-4.92-7.72-3.7,0-5.07,2.84-5.07,7.75v5.36Z"/><path d="M175.92,66.28V24.66h-5.28v-7.4h20v7.4H184.3V66.28"/></g></g></svg>