<svg xmlns="http://www.w3.org/2000/svg" viewBox="0 0 184.4 68.15"><defs><style>.cls-1{fill:#453a96;}</style></defs><g id="Capa_2" data-name="Capa 2"><g id="Capa_1-2" data-name="Capa 1"><path class="cls-1" d="M22,38.71c0-.78,0-2,0-3.24h-4.3c-.76,4.75,2.25,9.92-3,12.74-4.82-3.44-2.21-6.48-2.85-12.74H7.56c-.13,8.26-1.22,13.3,7.07,17.66C20.78,49.86,22.73,46.71,22,38.71Z"/><path class="cls-1" d="M22.22,29.32C23.4,14.46.73,13.13.08,28c-.09,3.9.06,9.36,0,13.61H4.23c0-4.75,0-5.43,0-9.48C1.57,19.23,19.46,17.44,18,31.05h4.22C22.21,30.7,22.23,29.3,22.22,29.32Z"/><path class="cls-1" d="M21.46,54.26V52.68l-4.29,3.18C18.52,65.5,4.5,67,4.28,57c0-3.12,0-7.1,0-10.26H0c-.06,3.65,0,7,0,10.43C.82,73.54,24.08,70.83,21.46,54.26Z"/><path class="cls-1" d="M11.11,16c10.38.14,10.38-16.18,0-16C.72-.14.72,16.19,11.11,16ZM7,8c-.08-5.4,8.37-5.4,8.3,0S6.88,13.42,7,8Z"/><path class="cls-1" d="M58.17,47.05c.07,8.41-.11,19.15-13.73,19.29C33.16,66.34,31,58.91,31,49.5V17.8C31,8,35.3,2,44.57,2c12.52-.08,13.57,9.63,13.32,18.78H49.43V17.21c1.13-10.11-10.94-10.32-9.92.08V50.16c0,5,1.05,8.59,5.15,8.59,5.27.42,5.1-6.9,5-11.7Z"/><path class="cls-1" d="M72.56,65.46l-11-62.63h9.08c1.82,14.2,5.65,38.44,7,51.68h.16C79.19,41.75,83,16.73,84.71,2.83h9L82.9,65.46Z"/><path d="M98.52,65.46V17h9.83c2.86,7.73,10.86,32.26,11.67,35.41h.13c-.66-9.41-.43-24.88-.47-35.41h7.8V65.46H118c-2.55-7.18-11.16-33.78-12-36.58h-.09c.7,8.75.44,26.05.49,36.58Z"/><path d="M143,43.43v7.41c-1,10.61,10.84,11.25,9.76.45h8.2c1.75,19.92-28.45,21.29-26.16-2V32.57c0-6.89,2.27-16.06,13.36-16.06,15-.33,12.95,16.24,13,26.92Zm10-6.67c-.15-4.49,1.23-13.43-4.92-13.11-5.86-.54-5.1,8.54-5.07,13.11Z"/><path d="M169.67,66.28V24.66h-5.28v-7.4h20v7.4h-6.35V66.28"/></g></g></svg>