<svg xmlns="http://www.w3.org/2000/svg" viewBox="0 0 127 127"><defs><style>.cls-1{fill:#453a96;}.cls-2{fill:#fff;}</style></defs><g id="Capa_2" data-name="Capa 2"><g id="Capa_1-2" data-name="Capa 1"><rect class="cls-1" width="127" height="127" rx="63.5"/><path class="cls-2" d="M73.71,65.83c-.08,3.69.08,5.44,0,7.27-.07,1.64.08,3.33,0,6.57-.07,2.73-3.63,4.83-4.82,5.5-2.08-1.42-4.65-4-4.62-5.82.1-6.87,0-13.47,0-13.52H58.41s0,6.8,0,13.86c0,6,9.57,11.74,10,12l.43.25.43-.25c.4-.22,10.19-5.66,10.35-11.57.09-3.27-.08-5,0-6.71.09-1.91-.08-3.77,0-7.56H73.71Z"/><path class="cls-2" d="M63.79,38.26h-.27A16.46,16.46,0,0,0,47.1,54.17c-.14,5,.08,13,0,20.3h5.68V73.14c.11-7.8-.19-4.37,0-8.67.1-2.55-.15-6.11,0-10.6A9.66,9.66,0,0,1,56.26,47a10.71,10.71,0,0,1,18,8.1c0,1.78,0-.26,0,1.49v2H80v-.86c0-2.24,0-.63,0-2.87A16.23,16.23,0,0,0,63.79,38.26Z"/><path class="cls-2" d="M78.87,94V92.19L73,96.56s0,1.72,0,2.35a10.3,10.3,0,0,1-3.29,7.3c-2.1,2-3.91,3-6.86,2.83a10.57,10.57,0,0,1-10-10.94c0-1.9,0-3.83,0-5.71,0-1,0-2,0-3V82.87H47v.86c-.11,5.57.05,10.22,0,14.63a16.15,16.15,0,0,0,16.13,16.53h.27c8.83,0,15.21-7.09,15.46-15.91C79,96.37,78.81,96.43,78.87,94Z"/><path class="cls-2" d="M63.5,35.79A11.85,11.85,0,1,0,51.68,23.94,11.85,11.85,0,0,0,63.5,35.79Zm0-18.46a6.61,6.61,0,1,1-6.59,6.61A6.61,6.61,0,0,1,63.5,17.33Z"/></g></g></svg>